<svg height="512pt" viewBox="0 -80 512 512" width="512pt" xmlns="http://www.w3.org/2000/svg"><path d="m497 296.167969c0 22.089843-18.074219 40.164062-40.167969 40.164062h-401.664062c-22.09375 0-40.167969-18.074219-40.167969-40.164062v-241c0-22.09375 18.074219-40.167969 40.167969-40.167969h401.664062c22.09375 0 40.167969 18.074219 40.167969 40.167969zm0 0" fill="#ff4949"/><path d="m456.832031 15h-200.832031v321.332031h200.832031c22.09375 0 40.167969-18.074219 40.167969-40.164062v-241c0-22.09375-18.074219-40.167969-40.167969-40.167969zm0 0" fill="#f30051"/><path d="m456.832031 351.332031h-401.664062c-30.417969 0-55.167969-24.746093-55.167969-55.164062v-241c0-30.421875 24.75-55.167969 55.167969-55.167969h401.664062c30.421875 0 55.167969 24.746094 55.167969 55.167969v241c0 30.417969-24.746094 55.164062-55.167969 55.164062zm-401.664062-321.332031c-13.878907 0-25.167969 11.289062-25.167969 25.167969v241c0 13.875 11.289062 25.164062 25.167969 25.164062h401.664062c13.878907 0 25.167969-11.289062 25.167969-25.164062v-241c0-13.878907-11.289062-25.167969-25.167969-25.167969zm0 0" fill="#265c76"/><path d="m85.375 112.4375c-26.753906 0-42.101562 15.050781-42.101562 41.296875v44.828125c0 26.242188 15.34375 41.296875 42.101562 41.296875 26.855469 0 42.257812-15.054687 42.257812-41.296875v-44.828125c0-26.246094-15.402343-41.296875-42.257812-41.296875zm-12.210938 41.296875c0-12.316406 6.171876-13.980469 12.210938-13.980469 8.554688 0 12.371094 4.3125 12.371094 13.980469v44.828125c0 9.667969-3.816406 13.980469-12.371094 13.980469-6.039062 0-12.210938-1.664063-12.210938-13.980469zm0 0" fill="#e7f0ef"/><path d="m208.445312 112.4375c-8.9375 0-14.945312 4.394531-14.945312 10.929688v46.101562l-22.527344-43.535156c-5.5-10.46875-9.886718-13.496094-19.570312-13.496094-8.9375 0-14.941406 4.457031-14.941406 11.089844v104.277344c0 6.53125 6.144531 11.089843 14.941406 11.089843 8.660156 0 14.945312-4.664062 14.945312-11.089843v-46.632813l26.101563 48.800781c3.25 5.917969 8.628906 8.921875 15.996093 8.921875 8.660157 0 14.945313-4.664062 14.945313-11.089843v-104.4375c0-6.535157-6.007813-10.929688-14.945313-10.929688zm0 0" fill="#e7f0ef"/><g fill="#c5e1e6"><path d="m339.574219 223.019531c-.019531-.074219-.039063-.152343-.0625-.226562l-31-101.039063c-1.902344-6.339844-8.726563-10.277344-17.808594-10.277344-8.847656 0-15.773437 4.03125-17.636719 10.25l-31.011718 101.066407c-.023438.074219-.046876.15625-.0625.234375-.246094.972656-.457032 1.8125-.457032 2.6875 0 8.488281 10.453125 13.179687 17.675782 13.179687 8.519531 0 10.824218-5.269531 11.398437-7.441406l5.171875-18.105469h30.007812l5.148438 18.015625c.597656 2.265625 2.902344 7.53125 11.421875 7.53125 7.222656 0 17.675781-4.691406 17.675781-13.175781 0-.964844-.207031-1.742188-.371094-2.367188zm-40.84375-35.0625h-16.054688l8.027344-28.324219zm0 0"/><path d="m357.058594 112.4375c-8.941406 0-14.945313 4.394531-14.945313 10.929688v104.4375c0 6.53125 6.144531 11.089843 14.945313 11.089843 8.65625 0 14.941406-4.664062 14.941406-11.089843v-104.4375c0-6.535157-6.003906-10.929688-14.941406-10.929688zm0 0"/><path d="m467.238281 219.292969-18.492187-34.300781c8.730468-4.167969 19.175781-13.53125 19.175781-34.472657 0-24.558593-15.121094-38.082031-42.578125-38.082031h-31.816406c-6.304688 0-11.246094 4.800781-11.246094 10.929688v104.4375c0 6.425781 6.285156 11.089843 14.941406 11.089843 8.800782 0 14.945313-4.558593 14.945313-11.089843v-37.4375h6.25l21.539062 41.859374c2.335938 4.679688 6.542969 7.46875 11.253907 7.46875 8.675781 0 17.515624-7.785156 17.515624-15.425781 0-.882812-.152343-3.050781-1.488281-4.976562zm-29.203125-66.84375c0 9.019531-3.558594 12.53125-12.691406 12.53125h-13.175781v-25.222657h13.175781c9.132812 0 12.691406 3.554688 12.691406 12.691407zm0 0"/></g><path d="m456.832031 0h-200.832031v30h200.832031c13.878907 0 25.167969 11.289062 25.167969 25.167969v241c0 13.875-11.289062 25.164062-25.167969 25.164062h-200.832031v30h200.832031c30.421875 0 55.167969-24.746093 55.167969-55.164062v-241c0-30.421875-24.746094-55.167969-55.167969-55.167969zm0 0" fill="#1d4659"/></svg>